<?xml version="1.0" encoding="UTF-8" standalone="no"?>
<!-- Created with Inkscape (http://www.inkscape.org/) -->

<svg
   xmlns:dc="http://purl.org/dc/elements/1.1/"
   xmlns:cc="http://creativecommons.org/ns#"
   xmlns:rdf="http://www.w3.org/1999/02/22-rdf-syntax-ns#"
   xmlns:svg="http://www.w3.org/2000/svg"
   xmlns="http://www.w3.org/2000/svg"
   xmlns:xlink="http://www.w3.org/1999/xlink"
   xmlns:sodipodi="http://sodipodi.sourceforge.net/DTD/sodipodi-0.dtd"
   xmlns:inkscape="http://www.inkscape.org/namespaces/inkscape"
   width="101.6mm"
   height="152.39999mm"
   viewBox="0 0 360.00001 540.00001"
   id="svg2"
   version="1.1"
   inkscape:version="0.91 r13725"
   sodipodi:docname="Member Project.svg">
  <defs
     id="defs4">
    <linearGradient
       inkscape:collect="always"
       xlink:href="#linearGradient4739"
       id="linearGradient5337"
       gradientUnits="userSpaceOnUse"
       gradientTransform="matrix(0,-144.00014,-144.00014,0,134.52002,1077.7676)"
       spreadMethod="pad"
       x1="0"
       y1="0"
       x2="1"
       y2="0" />
    <linearGradient
       x1="0"
       y1="0"
       x2="1"
       y2="0"
       gradientUnits="userSpaceOnUse"
       gradientTransform="matrix(0,-144.00014,-144.00014,0,134.52002,1077.7676)"
       spreadMethod="pad"
       id="linearGradient4739">
      <stop
         style="stop-opacity:1;stop-color:#4d8589"
         offset="0"
         id="stop4741" />
      <stop
         style="stop-opacity:1;stop-color:#005056"
         offset="1"
         id="stop4743" />
    </linearGradient>
  </defs>
  <sodipodi:namedview
     id="base"
     pagecolor="#ffffff"
     bordercolor="#666666"
     borderopacity="1.0"
     inkscape:pageopacity="0.0"
     inkscape:pageshadow="2"
     inkscape:zoom="0.98994949"
     inkscape:cx="-77.699342"
     inkscape:cy="274.92013"
     inkscape:document-units="px"
     inkscape:current-layer="layer1"
     showgrid="false"
     units="mm"
     inkscape:window-width="1366"
     inkscape:window-height="715"
     inkscape:window-x="-8"
     inkscape:window-y="-8"
     inkscape:window-maximized="1" />
  <metadata
     id="metadata7">
    <rdf:RDF>
      <cc:Work
         rdf:about="">
        <dc:format>image/svg+xml</dc:format>
        <dc:type
           rdf:resource="http://purl.org/dc/dcmitype/StillImage" />
        <dc:title />
      </cc:Work>
    </rdf:RDF>
  </metadata>
  <g
     inkscape:label="Layer 1"
     inkscape:groupmode="layer"
     id="layer1"
     transform="translate(0,-512.36215)">
    <flowRoot
       xml:space="preserve"
       id="flowRoot4144"
       style="font-style:normal;font-weight:normal;font-size:22.5px;line-height:125%;font-family:sans-serif;letter-spacing:0px;word-spacing:0px;fill:#000000;fill-opacity:1;stroke:none;stroke-width:1px;stroke-linecap:butt;stroke-linejoin:miter;stroke-opacity:1"
       transform="translate(0,512.36215)"><flowRegion
         id="flowRegion4146"><rect
           id="rect4148"
           width="93.944183"
           height="71.720833"
           x="17.172594"
           y="75.329826" /></flowRegion><flowPara
         id="flowPara4150">Member's Project</flowPara></flowRoot>    <flowRoot
       xml:space="preserve"
       id="flowRoot4152"
       style="font-style:normal;font-weight:normal;font-size:36.28017044px;line-height:125%;font-family:sans-serif;letter-spacing:0px;word-spacing:0px;fill:#000000;fill-opacity:1;stroke:none;stroke-width:1px;stroke-linecap:butt;stroke-linejoin:miter;stroke-opacity:1"
       transform="matrix(0.98748291,0,0,0.98748291,38.385797,13.85748)"><flowRegion
         id="flowRegion4154"><rect
           id="rect4156"
           width="490.27557"
           height="91.214066"
           x="-3.5437298"
           y="569.76978" /></flowRegion><flowPara
         id="flowPara4158">Member's Project</flowPara></flowRoot>    <text
       xml:space="preserve"
       style="font-style:normal;font-weight:normal;font-size:22.21836472px;line-height:125%;font-family:sans-serif;letter-spacing:0px;word-spacing:0px;fill:#000000;fill-opacity:1;stroke:none;stroke-width:1px;stroke-linecap:butt;stroke-linejoin:miter;stroke-opacity:1"
       x="36.216034"
       y="649.05627"
       id="text4202"
       sodipodi:linespacing="125%"><tspan
         sodipodi:role="line"
         id="tspan4204"
         x="36.216034"
         y="649.05627">Member Name:</tspan></text>
    <text
       xml:space="preserve"
       style="font-style:normal;font-weight:normal;font-size:22.21836472px;line-height:125%;font-family:sans-serif;letter-spacing:0px;word-spacing:0px;fill:#000000;fill-opacity:1;stroke:none;stroke-width:1px;stroke-linecap:butt;stroke-linejoin:miter;stroke-opacity:1"
       x="36.216034"
       y="744.11169"
       id="text4202-8"
       sodipodi:linespacing="125%"><tspan
         sodipodi:role="line"
         id="tspan4204-7"
         x="36.216034"
         y="744.11169">Planned Removal Date:</tspan></text>
    <text
       xml:space="preserve"
       style="font-style:normal;font-weight:normal;font-size:22.21836472px;line-height:125%;font-family:sans-serif;letter-spacing:0px;word-spacing:0px;fill:#000000;fill-opacity:1;stroke:none;stroke-width:1px;stroke-linecap:butt;stroke-linejoin:miter;stroke-opacity:1"
       x="37.13818"
       y="842.57281"
       id="text4224"
       sodipodi:linespacing="125%"><tspan
         sodipodi:role="line"
         id="tspan4226"
         x="37.13818"
         y="842.57281">Contact Details:</tspan></text>
    <text
       xml:space="preserve"
       style="font-style:normal;font-weight:normal;font-size:22.21836472px;line-height:125%;font-family:sans-serif;letter-spacing:0px;word-spacing:0px;fill:#000000;fill-opacity:1;stroke:none;stroke-width:1px;stroke-linecap:butt;stroke-linejoin:miter;stroke-opacity:1"
       x="38.103725"
       y="959.28137"
       id="text4228"
       sodipodi:linespacing="125%"><tspan
         sodipodi:role="line"
         id="tspan4230"
         x="38.103725"
         y="959.28137">Authorised By:</tspan></text>
    <text
       xml:space="preserve"
       style="font-style:normal;font-weight:normal;font-size:50.26886368px;line-height:125%;font-family:sans-serif;letter-spacing:0px;word-spacing:0px;fill:#000000;fill-opacity:1;stroke:none;stroke-width:1px;stroke-linecap:butt;stroke-linejoin:miter;stroke-opacity:1"
       x="38.385796"
       y="797.05157"
       id="text4259"
       sodipodi:linespacing="125%"><tspan
         sodipodi:role="line"
         id="tspan4261"
         x="38.385796"
         y="797.05157">     /     /     </tspan></text>
    <g
       transform="matrix(0.41452184,0,0,-0.41452184,10.868593,967.5488)"
       id="g5386">
      <path
         d="m 228.603,968.4443 0,14.375 30.032,0 c 2.738,0 4.598,0.597 5.583,1.796 0.983,1.197 1.476,2.651 1.476,4.364 0,1.71 -0.449,3.058 -1.347,4.043 -0.899,0.982 -2.547,1.518 -4.942,1.604 l -14.887,0.385 c -5.904,0.084 -10.312,1.881 -13.22,5.39 -2.909,3.508 -4.363,8.214 -4.363,14.118 0,6.674 2.009,11.807 6.032,15.401 4.021,3.594 9.539,5.39 16.556,5.39 l 30.161,0 0,-14.374 -28.749,0 c -2.74,0 -4.579,-0.557 -5.519,-1.668 -0.942,-1.114 -1.412,-2.525 -1.412,-4.236 0,-1.369 0.405,-2.503 1.22,-3.401 0.812,-0.898 2.33,-1.392 4.556,-1.476 l 15.529,-0.513 c 5.304,-0.173 9.604,-1.733 12.898,-4.684 3.293,-2.952 4.942,-7.809 4.942,-14.567 0,-3.68 -0.449,-6.911 -1.348,-9.69 -0.898,-2.782 -2.354,-5.092 -4.364,-6.931 -2.011,-1.841 -4.62,-3.188 -7.829,-4.043 -3.208,-0.856 -7.167,-1.283 -11.871,-1.283 l -29.134,0 z"
         style="fill:#8cc63f;fill-opacity:1;fill-rule:nonzero;stroke:none"
         id="path4489"
         inkscape:connector-curvature="0" />
      <path
         d="m 313.1792,985.1289 c 1.027,-1.626 2.353,-2.781 3.979,-3.465 1.624,-0.686 3.722,-1.027 6.289,-1.027 2.566,0 4.684,0.341 6.353,1.027 1.668,0.684 2.993,1.861 3.978,3.529 0.983,1.668 1.669,3.915 2.053,6.738 0.386,2.823 0.578,6.373 0.578,10.653 0,4.107 -0.214,7.485 -0.642,10.139 -0.429,2.651 -1.135,4.748 -2.117,6.288 -0.985,1.54 -2.31,2.587 -3.979,3.145 -1.668,0.555 -3.744,0.834 -6.224,0.834 -2.483,0 -4.557,-0.279 -6.225,-0.834 -1.668,-0.558 -2.996,-1.605 -3.979,-3.145 -0.984,-1.54 -1.668,-3.637 -2.053,-6.288 -0.385,-2.654 -0.578,-6.032 -0.578,-10.139 0,-4.364 0.193,-7.937 0.578,-10.717 0.385,-2.781 1.047,-5.028 1.989,-6.738 m -5.39,-16.171 c -6.161,2.481 -10.354,6.545 -12.578,12.192 -2.226,5.647 -3.337,12.791 -3.337,21.434 0,5.474 0.45,10.373 1.348,14.695 0.898,4.319 2.522,7.957 4.877,10.909 2.352,2.952 5.583,5.198 9.69,6.738 4.107,1.54 9.325,2.31 15.658,2.31 6.417,0 11.679,-0.77 15.786,-2.31 4.107,-1.54 7.335,-3.786 9.69,-6.738 2.352,-2.952 3.978,-6.59 4.877,-10.909 0.898,-4.322 1.347,-9.221 1.347,-14.695 0,-5.647 -0.449,-10.717 -1.347,-15.209 -0.899,-4.492 -2.547,-8.278 -4.942,-11.358 -2.396,-3.08 -5.627,-5.435 -9.69,-7.059 -4.064,-1.624 -9.304,-2.439 -15.721,-2.439 -6.417,0 -11.638,0.815 -15.658,2.439"
         style="fill:#8cc63f;fill-opacity:1;fill-rule:nonzero;stroke:none"
         id="path4493"
         inkscape:connector-curvature="0" />
      <path
         d="m 396.7295,968.4443 0,55.572 c 0,1.368 0.17,2.417 0.513,3.145 0.341,0.725 0.983,1.56 1.925,2.502 1.625,1.54 3.55,3.081 5.776,4.621 1.197,0.854 2.33,1.411 3.401,1.668 1.069,0.257 2.545,0.385 4.427,0.385 l 11.68,0 c 3.85,0 7.037,-0.385 9.561,-1.155 2.523,-0.77 4.556,-1.54 6.096,-2.31 1.112,0.513 3.38,1.219 6.803,2.117 3.421,0.899 7.572,1.348 12.449,1.348 4.704,0 8.791,-0.558 12.257,-1.668 3.465,-1.113 6.308,-2.675 8.534,-4.685 2.224,-2.011 3.893,-4.408 5.006,-7.187 1.111,-2.781 1.668,-5.797 1.668,-9.048 l 0,-45.305 -18.224,0 0,42.866 c 0,3.337 -0.814,5.904 -2.439,7.701 -1.626,1.797 -4.364,2.695 -8.214,2.695 -1.626,0 -3.166,-0.108 -4.62,-0.321 -1.456,-0.214 -2.611,-0.449 -3.465,-0.706 0.17,-0.686 0.385,-1.732 0.641,-3.144 0.257,-1.412 0.385,-2.974 0.385,-4.685 l 0,-44.406 -18.224,0 0,42.866 c 0,3.337 -0.834,5.904 -2.503,7.701 -1.668,1.797 -4.215,2.695 -7.636,2.695 l -7.572,0 0,-53.262 -18.225,0 z"
         style="fill:#005056;fill-opacity:1;fill-rule:nonzero;stroke:none"
         id="path4497"
         inkscape:connector-curvature="0" />
      <path
         d="m 537.2637,980.1235 0,16.685 -12.192,0 c -3.68,0 -6.288,-0.664 -7.829,-1.99 -1.54,-1.327 -2.311,-3.445 -2.311,-6.353 0,-3.337 0.771,-5.563 2.311,-6.674 1.541,-1.112 4.149,-1.668 7.829,-1.668 l 12.192,0 z m -13.861,-12.706 c -4.619,0 -8.557,0.343 -11.807,1.027 -3.253,0.683 -5.926,1.839 -8.021,3.465 -2.098,1.624 -3.638,3.806 -4.621,6.546 -0.984,2.737 -1.476,6.116 -1.476,10.139 0,4.107 0.598,7.55 1.797,10.331 1.197,2.78 2.887,5.006 5.07,6.674 2.181,1.669 4.812,2.843 7.893,3.529 3.08,0.684 6.501,1.027 10.266,1.027 l 14.76,0 0,3.209 c 0,2.994 -1.026,4.961 -3.08,5.904 -2.053,0.94 -4.578,1.411 -7.572,1.411 l -23.872,0 0,14.631 23.872,0 c 9.325,0 16.47,-1.754 21.433,-5.262 4.961,-3.509 7.444,-9.369 7.444,-17.583 l 0,-32.727 c 0,-1.37 -0.172,-2.419 -0.514,-3.144 -0.342,-0.728 -0.984,-1.563 -1.924,-2.503 -1.713,-1.54 -3.639,-3.08 -5.775,-4.62 -1.199,-0.857 -2.333,-1.412 -3.403,-1.669 -1.07,-0.257 -2.546,-0.385 -4.427,-0.385 l -16.043,0 z"
         style="fill:#005056;fill-opacity:1;fill-rule:nonzero;stroke:none"
         id="path4501"
         inkscape:connector-curvature="0" />
      <path
         d="m 569.0918,968.4443 0,97.284 18.225,0 0,-52.364 4.748,0 18.867,21.946 20.662,0 -24.898,-29.005 26.695,-37.861 -21.945,0 -20.022,28.749 -4.107,0 0,-28.749 -18.225,0 z"
         style="fill:#005056;fill-opacity:1;fill-rule:nonzero;stroke:none"
         id="path4505"
         inkscape:connector-curvature="0" />
      <path
         d="m 676.7715,1010.7974 c 0,4.364 -0.77,7.636 -2.31,9.818 -1.54,2.182 -4.578,3.273 -9.112,3.273 -4.62,0 -7.701,-1.091 -9.24,-3.273 -1.541,-2.182 -2.44,-5.454 -2.695,-9.818 l 23.357,0 z m 15.145,-42.353 -19.508,0 c -5.991,0 -11.317,0.299 -15.979,0.898 -4.664,0.598 -8.578,2.096 -11.743,4.493 -3.167,2.394 -5.583,5.839 -7.251,10.331 -1.669,4.492 -2.503,10.416 -2.503,17.776 0,12.148 2.353,21.067 7.059,26.759 4.704,5.689 12.449,8.534 23.229,8.534 6.074,0 11.038,-0.75 14.889,-2.246 3.85,-1.498 6.866,-3.573 9.048,-6.224 2.181,-2.653 3.677,-5.776 4.492,-9.369 0.811,-3.594 1.22,-7.488 1.22,-11.679 0,-2.483 -0.024,-4.729 -0.065,-6.738 -0.045,-2.012 -0.109,-3.488 -0.193,-4.428 l -41.197,0 c 0.084,-3.337 0.619,-5.926 1.603,-7.765 0.983,-1.841 2.375,-3.208 4.172,-4.107 1.797,-0.898 3.957,-1.434 6.48,-1.604 2.524,-0.173 5.327,-0.257 8.408,-0.257 l 17.839,0 0,-14.374 z"
         style="fill:#005056;fill-opacity:1;fill-rule:nonzero;stroke:none"
         id="path4509"
         inkscape:connector-curvature="0" />
      <path
         inkscape:connector-curvature="0"
         id="path4511"
         style="fill:#8cc63f;fill-opacity:1;fill-rule:nonzero;stroke:none"
         d="m 735.938,1035.311 18.225,0 0,-66.866 -18.225,0 0,66.866 z m 0,25.283 18.225,0 0,-16.556 -18.225,0 0,16.556 z" />
      <path
         d="m 808.1934,968.4443 -14.502,0 c -3.68,0 -6.91,0.321 -9.689,0.962 -2.782,0.642 -5.114,1.753 -6.997,3.337 -1.882,1.583 -3.293,3.678 -4.234,6.289 -0.942,2.609 -1.412,5.882 -1.412,9.818 l 0,31.829 -9.24,0 0,14.631 9.24,0 0,17.84 18.225,0 0,-17.84 16.556,0 0,-14.631 -16.556,0 0,-27.593 c 0,-3.85 0.726,-6.481 2.181,-7.893 1.455,-1.412 3.979,-2.118 7.573,-2.118 l 8.855,0 0,-14.631 z"
         style="fill:#8cc63f;fill-opacity:1;fill-rule:nonzero;stroke:none"
         id="path4515"
         inkscape:connector-curvature="0" />
      <path
         inkscape:connector-curvature="0"
         id="path4745"
         style="fill:url(#linearGradient5337);stroke:none"
         d="m 153.271,1074.708 0,-30.23 23.251,-23.252 0,-34.795 -24.604,-24.605 -0.922,0 0,48.827 -9.651,9.652 -13.649,0 -9.652,-9.652 0,-48.827 -0.922,0 -24.605,24.605 0,34.795 24.641,24.605 0,28.877 -20.774,0 c -16.569,0 -30.001,-13.432 -30.001,-30 l 0,0 0,-76.274 c 0,-16.568 13.432,-29.999 30.001,-29.999 l 0,0 76.273,0 c 16.568,0 30,13.431 30,29.999 l 0,0 0,76.274 c 0,16.568 -13.432,30 -30,30 l 0,0 -19.386,0 z" />
    </g>
    <rect
       style="fill:none;fill-opacity:1;stroke:#000000;stroke-width:2.55659318;stroke-miterlimit:4;stroke-dasharray:none;stroke-opacity:1"
       id="rect4187"
       width="316.21014"
       height="59.850502"
       x="39.664093"
       y="657.03625"
       ry="11.39101" />
    <rect
       style="fill:none;fill-opacity:1;stroke:#000000;stroke-width:2.55659318;stroke-miterlimit:4;stroke-dasharray:none;stroke-opacity:1"
       id="rect4187-4"
       width="316.21014"
       height="59.850502"
       x="39.664093"
       y="751.79962"
       ry="11.39101" />
    <rect
       style="fill:none;fill-opacity:1;stroke:#000000;stroke-width:2.55659318;stroke-miterlimit:4;stroke-dasharray:none;stroke-opacity:1"
       id="rect4187-40"
       width="316.21014"
       height="59.850502"
       x="39.664093"
       y="966.26392"
       ry="11.39101" />
    <rect
       style="fill:none;fill-opacity:1;stroke:#000000;stroke-width:2.55659318;stroke-miterlimit:4;stroke-dasharray:none;stroke-opacity:1"
       id="rect4216"
       width="313.21762"
       height="80.79818"
       x="39.664093"
       y="848.55786"
       ry="11.39101" />
    <text
       xml:space="preserve"
       style="font-style:normal;font-weight:normal;font-size:16.76265335px;line-height:125%;font-family:sans-serif;letter-spacing:0px;word-spacing:0px;fill:#000000;fill-opacity:1;stroke:none;stroke-width:1px;stroke-linecap:butt;stroke-linejoin:miter;stroke-opacity:1"
       x="-1020.1381"
       y="26.860085"
       id="text4202-0-6"
       sodipodi:linespacing="125%"
       transform="matrix(0,-1,1,0,0,0)"><tspan
         sodipodi:role="line"
         id="tspan4204-1-6"
         x="-1020.1381"
         y="26.860085">https://wiki.somakeit.org.uk/wiki/Member_Storage_Policy</tspan></text>
  </g>
</svg>
